<?xml version="1.0" encoding="UTF-8"?>
<svg id="Layer_1" data-name="Layer 1" xmlns="http://www.w3.org/2000/svg" viewBox="0 0 480.68 595">
  <rect x="81.24" width="216" height="72" rx="11.73" ry="11.73" style="fill: #fbeff7;"/>
  <rect x="77" y="86.23" width="224.24" height="150.77" rx="11.73" ry="11.73" style="fill: #e6d3ea;"/>
  <rect x="76.88" y="250.84" width="224.24" height="107.16" rx="11.73" ry="11.73" style="fill: #fbeff7;"/>
  <g>
    <path d="m11.73,197.73h19.51c6.2,0,11.23,5.03,11.23,11.23v19.18c0,6.2-5.03,11.23-11.23,11.23H11.73c-6.2,0-11.23-5.03-11.23-11.23v-19.18c0-6.2,5.03-11.23,11.23-11.23Z" style="fill: #fbeff7;"/>
    <path d="m31.24,198.23c5.92,0,10.73,4.82,10.73,10.73v19.18c0,5.92-4.82,10.73-10.73,10.73H11.73c-5.92,0-10.73-4.82-10.73-10.73v-19.18c0-5.92,4.82-10.73,10.73-10.73h19.51m0-1H11.73c-6.48,0-11.73,5.25-11.73,11.73v19.18c0,6.48,5.25,11.73,11.73,11.73h19.51c6.48,0,11.73-5.25,11.73-11.73v-19.18c0-6.48-5.25-11.73-11.73-11.73h0Z" style="fill: #94246d;"/>
  </g>
  <g>
    <path d="m12,142.59h19.51c6.2,0,11.23,5.03,11.23,11.23v19.18c0,6.2-5.03,11.23-11.23,11.23H12c-6.2,0-11.23-5.03-11.23-11.23v-19.18c0-6.2,5.03-11.23,11.23-11.23Z" style="fill: #fbeff7;"/>
    <path d="m31.51,143.09c5.92,0,10.73,4.82,10.73,10.73v19.18c0,5.92-4.82,10.73-10.73,10.73H12c-5.92,0-10.73-4.82-10.73-10.73v-19.18c0-5.92,4.82-10.73,10.73-10.73h19.51m0-1H12c-6.48,0-11.73,5.25-11.73,11.73v19.18c0,6.48,5.25,11.73,11.73,11.73h19.51c6.48,0,11.73-5.25,11.73-11.73v-19.18c0-6.48-5.25-11.73-11.73-11.73h0Z" style="fill: #94246d;"/>
  </g>
  <g>
    <path d="m12,87.03h19.51c6.2,0,11.23,5.03,11.23,11.23v19.18c0,6.2-5.03,11.23-11.23,11.23H12c-6.2,0-11.23-5.03-11.23-11.23v-19.18c0-6.2,5.03-11.23,11.23-11.23Z" style="fill: #e6d3ea;"/>
    <path d="m31.51,87.53c5.92,0,10.73,4.82,10.73,10.73v19.18c0,5.92-4.82,10.73-10.73,10.73H12c-5.92,0-10.73-4.82-10.73-10.73v-19.18c0-5.92,4.82-10.73,10.73-10.73h19.51m0-1H12c-6.48,0-11.73,5.25-11.73,11.73v19.18c0,6.48,5.25,11.73,11.73,11.73h19.51c6.48,0,11.73-5.25,11.73-11.73v-19.18c0-6.48-5.25-11.73-11.73-11.73h0Z" style="fill: #94246d;"/>
  </g>
  <g>
    <path d="m12,253.47h19.51c6.2,0,11.23,5.03,11.23,11.23v19.18c0,6.2-5.03,11.23-11.23,11.23H12c-6.2,0-11.23-5.03-11.23-11.23v-19.18c0-6.2,5.03-11.23,11.23-11.23Z" style="fill: #e6d3ea;"/>
    <path d="m31.51,253.97c5.92,0,10.73,4.82,10.73,10.73v19.18c0,5.92-4.82,10.73-10.73,10.73H12c-5.92,0-10.73-4.82-10.73-10.73v-19.18c0-5.92,4.82-10.73,10.73-10.73h19.51m0-1H12c-6.48,0-11.73,5.25-11.73,11.73v19.18c0,6.48,5.25,11.73,11.73,11.73h19.51c6.48,0,11.73-5.25,11.73-11.73v-19.18c0-6.48-5.25-11.73-11.73-11.73h0Z" style="fill: #94246d;"/>
  </g>
  <g>
    <path d="m12,308.9h19.51c6.2,0,11.23,5.03,11.23,11.23v19.18c0,6.2-5.03,11.23-11.23,11.23H12c-6.2,0-11.23-5.03-11.23-11.23v-19.18c0-6.2,5.03-11.23,11.23-11.23Z" style="fill: #fbeff7;"/>
    <path d="m31.51,309.4c5.92,0,10.73,4.82,10.73,10.73v19.18c0,5.92-4.82,10.73-10.73,10.73H12c-5.92,0-10.73-4.82-10.73-10.73v-19.18c0-5.92,4.82-10.73,10.73-10.73h19.51m0-1H12c-6.48,0-11.73,5.25-11.73,11.73v19.18c0,6.48,5.25,11.73,11.73,11.73h19.51c6.48,0,11.73-5.25,11.73-11.73v-19.18c0-6.48-5.25-11.73-11.73-11.73h0Z" style="fill: #94246d;"/>
  </g>
  <rect x="76.88" y="371.65" width="224.24" height="132.35" rx="11.73" ry="11.73" style="fill: #e6d3ea;"/>
  <rect x="1.51" y="539.29" width="39.01" height="38.71" rx="11.73" ry="11.73" style="fill: #94246d;"/>
  <rect x="1.51" y="493.9" width="39.01" height="38.71" rx="11.73" ry="11.73" style="fill: #94246d;"/>
  <path d="m76.88,593.82v-64.61c0-7.82,6.34-14.16,14.16-14.16h195.92c7.82,0,14.16,6.34,14.16,14.16v65.79H78.05c-.65,0-1.18-.53-1.18-1.18Z" style="fill: #e6d3ea;"/>
  <rect x="334.88" y="86.19" width="145.36" height="203.81" rx="11.73" ry="11.73" style="fill: #fbeff7;"/>
  <rect x="335.32" y="419.67" width="145.36" height="90.33" rx="11.73" ry="11.73" style="fill: #0d0619;"/>
  <rect x="335.32" y="302.42" width="145.36" height="101.58" rx="11.73" ry="11.73" style="fill: #e6d3ea;"/>
  <rect x="335.24" y="21" width="145" height="53" rx="15.27" ry="15.27" style="fill: #94246d;"/>
</svg>